<svg width="60" height="60" viewBox="0 0 60 60" fill="none" xmlns="http://www.w3.org/2000/svg">
<path fill-rule="evenodd" clip-rule="evenodd" d="M1.9543 48.5181C1.93041 48.6545 1.765 48.6271 1.76465 48.5074V36.8759C1.76465 36.3612 2.18124 35.9439 2.69524 35.9439H20.5949L25.2717 30.9099H34.8865C35.1334 30.9099 35.3701 31.008 35.5447 31.1828C35.7191 31.3576 35.8171 31.5947 35.8171 31.8419V39.9381H27.5034C27.0455 39.9381 26.6083 40.1287 26.2966 40.4642L22.1086 44.9721H4.76218C3.5283 44.9721 2.46724 45.8482 2.23418 47.0616L1.9543 48.5181ZM37.4642 39.9825V39.4041C41.6721 37.3517 44.5838 33.0271 44.5838 28.0462C44.5838 21.0902 38.9097 15.4192 31.9568 15.4192C25.0008 15.4192 19.3297 21.0902 19.3297 28.0462C19.3297 30.0098 19.7819 31.8712 20.5877 33.5318L19.8769 34.2968H11.7089C10.6875 33.1552 9.20018 32.3981 7.40112 32.3981C6.44818 32.3981 5.67524 31.6252 5.67524 30.6722V25.4172C5.67524 24.4642 6.44818 23.6913 7.40112 23.6913C12.5785 23.6913 15.1735 17.4213 11.5138 13.7617C10.8403 13.0881 10.8403 11.9955 11.5138 11.3219L15.2324 7.6033C15.9061 6.92977 16.9986 6.92977 17.6722 7.6033C21.3318 11.2629 27.6018 8.668 27.6018 3.49047C27.6018 2.53765 28.3748 1.76471 29.3277 1.76471H34.5828C35.5357 1.76471 36.3086 2.53765 36.3086 3.49047C36.3086 8.668 42.5786 11.2629 46.2383 7.6033C46.9118 6.92977 48.0076 6.92977 48.6811 7.6033L52.3966 11.3219C53.0702 11.9955 53.0702 13.0881 52.3966 13.7617C48.737 17.4213 51.335 23.6913 56.5095 23.6913C57.4655 23.6913 58.2352 24.4642 58.2352 25.4172V30.6722C58.2352 31.6252 57.4655 32.3981 56.5095 32.3981C51.335 32.3981 48.737 38.6681 52.3966 42.3278C53.0702 43.0013 53.0702 44.0971 52.3966 44.7706L48.6811 48.4861C48.0076 49.1596 46.9118 49.1596 46.2383 48.4861C44.0868 46.3345 41.0329 46.3459 38.8814 47.7721L39.5403 42.8562C39.6389 42.1204 39.4152 41.3778 38.9272 40.8189C38.5441 40.3804 38.0272 40.0884 37.4642 39.9825ZM22.8265 46.6192L27.5034 41.5852H36.9888C37.2562 41.5852 37.5107 41.7008 37.6866 41.9025C37.8628 42.1041 37.9434 42.372 37.9078 42.6374C37.9078 42.6374 36.2458 55.0371 35.8856 57.7252C35.8464 58.0173 35.5972 58.2353 35.3025 58.2353C31.4369 58.2353 6.97947 58.2353 2.47665 58.2353C2.30124 58.2353 2.13488 58.1569 2.02312 58.0218C1.91147 57.8865 1.86582 57.7084 1.899 57.5361C2.3603 55.1348 3.85159 47.3725 3.85159 47.3725C3.93559 46.9352 4.31759 46.6192 4.76218 46.6192H22.8265Z" fill="#036C6A"/>
</svg>
