<svg width="60" height="60" viewBox="0 0 60 60" fill="none" xmlns="http://www.w3.org/2000/svg">
<path d="M54.375 52.5H5.625C4.58869 52.5 3.75 51.6604 3.75 50.625V48.75C3.75 47.7146 4.58869 46.875 5.625 46.875H54.375C55.4113 46.875 56.25 47.7146 56.25 48.75V50.625C56.25 51.6604 55.4113 52.5 54.375 52.5Z" fill="#036C6A"/>
<path d="M41.25 48.75C40.2137 48.75 39.375 47.9104 39.375 46.875V43.125C39.375 42.0896 40.2137 41.25 41.25 41.25C42.2863 41.25 43.125 42.0896 43.125 43.125V46.875C43.125 47.9104 42.2863 48.75 41.25 48.75Z" fill="#036C6A"/>
<path d="M16.875 48.75C15.8387 48.75 15 47.9104 15 46.875V43.125C15 42.0896 15.8387 41.25 16.875 41.25C17.9113 41.25 18.75 42.0896 18.75 43.125V46.875C18.75 47.9104 17.9113 48.75 16.875 48.75Z" fill="#036C6A"/>
<path d="M11.0573 16.875H22.6928C22.9395 15.2151 23.4276 13.5891 24.1772 12.0878C24.3073 11.8277 24.375 11.5412 24.375 11.25V9.375C24.375 8.33962 23.5363 7.5 22.5 7.5H11.25C10.2137 7.5 9.375 8.33962 9.375 9.375V11.25C9.375 11.5412 9.44269 11.8277 9.57281 12.0878C10.3224 13.5891 10.8105 15.2151 11.0573 16.875Z" fill="#036C6A"/>
<path d="M9.375 24.375H7.5V22.5C7.5 21.4646 6.66131 20.625 5.625 20.625C4.58869 20.625 3.75 21.4646 3.75 22.5V41.25C3.75 42.2854 4.58869 43.125 5.625 43.125C6.66131 43.125 7.5 42.2854 7.5 41.25V39.375H9.375V24.375Z" fill="#036C6A"/>
<path d="M35.625 24.375H46.875V28.125H35.625V24.375Z" fill="#036C6A"/>
<path d="M35.625 30H46.875V33.75H35.625V30Z" fill="#036C6A"/>
<path d="M35.625 20.625H46.875V22.5H35.625V20.625Z" fill="#036C6A"/>
<path d="M48.8087 20.625H48.75V43.125H48.8087C52.9119 43.125 56.25 39.7869 56.25 35.6837V28.0665C56.25 23.9631 52.9119 20.625 48.8087 20.625Z" fill="#036C6A"/>
<path d="M35.625 35.625H46.875V39.375H35.625V35.625Z" fill="#036C6A"/>
<path d="M35.625 41.25H46.875V43.125H35.625V41.25Z" fill="#036C6A"/>
<path d="M11.25 18.75H22.5V45H11.25V18.75Z" fill="#036C6A"/>
<path d="M30 18.75L33.75 20.625V43.125L30 45V18.75Z" fill="#036C6A"/>
<path d="M28.125 18.75L24.375 20.625V43.125L28.125 45V18.75Z" fill="#036C6A"/>
</svg>
