<svg width="60" height="60" viewBox="0 0 60 60" fill="none" xmlns="http://www.w3.org/2000/svg">
<g clip-path="url(#clip0_307_7524)">
<path d="M56.2504 35.0003C56.2504 26.0205 48.9754 18.75 40.0002 18.75C31.0257 18.75 23.7529 26.0205 23.7529 35.0003C21.6829 35.0003 20.0029 36.6795 20.0029 38.7503V51.2498C20.0029 53.3205 21.6829 54.9998 23.7529 54.9998H31.2529C31.9414 54.9998 32.5002 54.441 32.5002 53.7503V45C32.5002 43.6253 31.9999 41.4938 31.3849 40.2638L28.7532 35.0003C28.7532 28.7843 33.7849 23.7503 40.0009 23.7503C46.2117 23.7503 51.2509 28.7843 51.2509 35.0003L48.6192 40.2638C48.0042 41.4945 47.5009 43.6253 47.5009 45V54.0383C45.2787 55.4663 42.7054 56.25 40.0002 56.25H37.5004V60H40.0002C44.7882 60 49.1217 58.0883 52.3047 54.9998H56.2504C58.3212 54.9998 60.0004 53.3205 60.0004 51.2498V38.7503C60.0004 36.6795 58.3212 35.0003 56.2504 35.0003Z" fill="#036C6A"/>
<path d="M39.9997 15C40.8495 15 41.6797 15.0705 42.5002 15.1733V5.00025C42.5002 2.25075 40.2487 0 37.5 0H5.00025C2.25 0 0 2.25075 0 5.00025V20.0002C0 22.7498 2.25 25.0005 5.00025 25.0005V32.5005L17.5005 25.0005H22.7092C26.1727 19.0327 32.6167 15 39.9997 15ZM30 9.99975C31.3822 9.99975 32.4997 11.118 32.4997 12.4995C32.4997 13.8818 31.3822 15 30 15C28.6207 15 27.5002 13.8818 27.5002 12.5002C27.5002 11.118 28.6207 9.99975 30 9.99975ZM12.5002 15C11.121 15 10.0005 13.8818 10.0005 12.5002C10.0005 11.1187 11.121 10.0005 12.5002 10.0005C13.8825 10.0005 15 11.1187 15 12.5002C15 13.8818 13.8817 15 12.5002 15ZM18.75 12.5002C18.75 11.1187 19.8705 10.0005 21.2497 10.0005C22.6312 10.0005 23.7495 11.1187 23.7495 12.5002C23.7495 13.8825 22.6312 15 21.2497 15C19.8705 15 18.75 13.8818 18.75 12.5002Z" fill="#036C6A"/>
</g>
<defs>
<clipPath id="clip0_307_7524">
<rect width="60" height="60" fill="white"/>
</clipPath>
</defs>
</svg>
