<svg width="36" height="36" viewBox="0 0 36 36" fill="none" xmlns="http://www.w3.org/2000/svg">
<g clip-path="url(#clip0_424_4530)">
<path d="M26.25 16.5C20.874 16.5 16.5 20.874 16.5 26.25C16.5 31.626 20.874 36 26.25 36C31.626 36 36 31.626 36 26.25C36 20.874 31.626 16.5 26.25 16.5ZM30.138 30.315C29.9175 30.6 29.5845 30.75 29.25 30.75C29.0085 30.75 28.7655 30.672 28.56 30.513L25.185 27.888C24.9105 27.675 24.75 27.3465 24.75 27V22.125C24.75 21.504 25.254 21 25.875 21C26.496 21 27 21.504 27 22.125V26.4495L29.94 28.737C30.432 29.118 30.519 29.8245 30.138 30.315Z" fill="#036C6A"/>
<path d="M13.8292 0L6.53922 0.03C5.59422 0.03 4.70922 0.555 4.25922 1.38L0.449219 8.28L13.0942 8.25L13.8292 0Z" fill="#036C6A"/>
<path d="M29.5201 8.22L25.6651 1.32C25.2001 0.495001 24.3301 -0.0299988 23.3701 -0.0299988L16.0801 1.2219e-06L16.8451 8.25L29.5201 8.22Z" fill="#036C6A"/>
<path d="M29.9994 14.055C28.8144 13.695 27.5544 13.5 26.2494 13.5C19.2144 13.5 13.4994 19.215 13.4994 26.25C13.4994 27.555 13.6944 28.83 14.0694 30.015L2.41438 30.045C2.39937 30.045 2.39937 30.045 2.39937 30.045C1.10938 30.045 0.044375 28.98 0.044375 27.675L-0.015625 10.53L13.8594 10.5H16.1094L29.9844 10.455L29.9994 14.055Z" fill="#036C6A"/>
</g>
<defs>
<clipPath id="clip0_424_4530">
<rect width="36" height="36" fill="white"/>
</clipPath>
</defs>
</svg>
