<svg width="36" height="36" viewBox="0 0 36 36" fill="none" xmlns="http://www.w3.org/2000/svg">
<path d="M19.5525 23.1975C19.7739 22.9758 19.9495 22.7127 20.0691 22.4231C20.1888 22.1336 20.2503 21.8233 20.25 21.51C20.25 20.8775 19.9987 20.2708 19.5514 19.8236C19.1042 19.3763 18.4975 19.125 17.865 19.125C17.5517 19.1247 17.2414 19.1862 16.9519 19.3059C16.6623 19.4255 16.3992 19.6011 16.1775 19.8225L10.125 25.875H4.5V32.625H17.9213C19.4102 32.6247 20.8383 32.034 21.8925 30.9825L27 25.875H16.875L19.5525 23.1975Z" fill="#036C6A"/>
<path d="M16.875 3.375H21.375V10.125H16.875V3.375Z" fill="#036C6A"/>
<path d="M29.25 3.375H23.625V11.25C23.625 11.5484 23.5065 11.8345 23.2955 12.0455C23.0845 12.2565 22.7984 12.375 22.5 12.375H15.75C15.4516 12.375 15.1655 12.2565 14.9545 12.0455C14.7435 11.8345 14.625 11.5484 14.625 11.25V3.375H9C8.40326 3.375 7.83097 3.61205 7.40901 4.03401C6.98705 4.45597 6.75 5.02826 6.75 5.625V21.375C6.75 21.9717 6.98705 22.544 7.40901 22.966C7.83097 23.3879 8.40326 23.625 9 23.625H9.19125L14.625 18.2362C15.4112 17.4819 16.4381 17.0287 17.5252 16.9562C18.6124 16.8836 19.6904 17.1964 20.5699 17.8396C21.4494 18.4827 22.0742 19.4152 22.3345 20.4732C22.5949 21.5312 22.4743 22.6471 21.9937 23.625H29.25C29.8467 23.625 30.419 23.3879 30.841 22.966C31.2629 22.544 31.5 21.9717 31.5 21.375V5.625C31.5 5.02826 31.2629 4.45597 30.841 4.03401C30.419 3.61205 29.8467 3.375 29.25 3.375Z" fill="#036C6A"/>
</svg>
