<svg width="36" height="36" viewBox="0 0 36 36" fill="none" xmlns="http://www.w3.org/2000/svg">
<g clip-path="url(#clip0_424_4535)">
<path d="M27.0375 32.6109C28.9092 32.6109 30.4266 31.0936 30.4266 29.2219C30.4266 27.3501 28.9092 25.8328 27.0375 25.8328C25.1658 25.8328 23.6484 27.3501 23.6484 29.2219C23.6484 31.0936 25.1658 32.6109 27.0375 32.6109Z" fill="#036C6A"/>
<path d="M10.5773 31.2149C11.6723 29.6969 11.3294 27.5787 9.81139 26.4837C8.29342 25.3888 6.17522 25.7317 5.08026 27.2497C3.9853 28.7676 4.32822 30.8858 5.84619 31.9808C7.36416 33.0757 9.48236 32.7328 10.5773 31.2149Z" fill="#036C6A"/>
<path d="M21.539 4.44375C21.539 3.86128 21.0668 3.38906 20.4844 3.38906H1.05469C0.472219 3.38906 0 3.86128 0 4.44375V19.2047H21.539V4.44375Z" fill="#036C6A"/>
<path d="M0 28.1672C0 28.7497 0.472219 29.2219 1.05469 29.2219H2.33438C2.33438 26.19 4.80094 23.7234 7.83281 23.7234C10.8647 23.7234 13.3313 26.1901 13.3313 29.2219H20.4844C21.0668 29.2219 21.539 28.7497 21.539 28.1672V21.314H0V28.1672Z" fill="#036C6A"/>
<path d="M29.2227 9.10849V17.3482L36.0008 20.7373V16.8703C36.0008 12.8723 33.0316 9.62135 29.2227 9.10849Z" fill="#036C6A"/>
<path d="M27.1125 18V9.03748H24.7031C24.1207 9.03748 23.6484 9.50969 23.6484 10.0922V24.8969C24.5831 24.1628 25.7596 23.7234 27.0375 23.7234C30.0694 23.7234 32.5359 26.1901 32.5359 29.2219H34.9453C35.5278 29.2219 36 28.7497 36 28.1672V23.0956L27.6956 18.9434C27.3382 18.7646 27.1125 18.3995 27.1125 18Z" fill="#036C6A"/>
</g>
<defs>
<clipPath id="clip0_424_4535">
<rect width="36" height="36" fill="white"/>
</clipPath>
</defs>
</svg>
