<svg width="36" height="36" viewBox="0 0 36 36" fill="none" xmlns="http://www.w3.org/2000/svg">
<g clip-path="url(#clip0_424_4547)">
<path d="M18.8968 15.7209L16.127 16.2093L16.713 19.5332L19.483 19.0447C20.3993 18.8832 21.0134 18.0061 20.8519 17.0898C20.6903 16.1735 19.8134 15.5598 18.8968 15.7209Z" fill="#036C6A"/>
<path d="M35.9914 23.4863L33.7413 5.48564C33.6355 4.64524 32.6746 4.22004 31.9827 4.70093C25.873 8.94937 17.8641 10.5076 12.2213 11.0666C6.04553 11.6783 1.27323 11.2592 1.22542 11.255C0.537873 11.1923 -0.0865261 11.7673 0.0098761 12.5385L2.25694 30.5151C2.32726 31.0783 2.8061 31.5009 3.37355 31.5009C9.41925 31.5009 14.9771 31.0292 19.9654 30.096C20.7199 29.9549 21.3406 29.334 21.3809 28.3734C21.5468 24.4533 24.8289 21.3413 28.7524 21.3758C31.1681 21.397 33.3072 22.595 34.6246 24.4232C35.0985 25.0807 36.1032 24.39 35.9914 23.4863ZM19.8735 21.2607L17.1036 21.7491L17.2989 22.857L19.5148 22.4663C20.1269 22.3583 20.7103 22.767 20.8181 23.3789C20.926 23.9908 20.5175 24.5743 19.9055 24.6822L17.6896 25.0729L17.885 26.181C17.9929 26.7929 17.5843 27.3764 16.9724 27.4843C16.3619 27.5921 15.7772 27.1848 15.6691 26.5716C15.4316 25.2251 13.9534 16.8416 13.7154 15.4921C13.6075 14.8803 14.0161 14.2967 14.6281 14.1888L18.5059 13.505C20.6435 13.1281 22.6905 14.5608 23.0675 16.699C23.4445 18.8373 22.0117 20.8836 19.8735 21.2607Z" fill="#036C6A"/>
<path d="M28.6877 33.751C25.8961 33.751 23.625 31.4799 23.625 28.6883C23.625 25.8967 25.8961 23.6256 28.6877 23.6256C31.4793 23.6256 33.7504 25.8967 33.7504 28.6883C33.7504 31.4799 31.4793 33.751 28.6877 33.751Z" fill="#036C6A"/>
<path d="M14.4812 3.54305C14.1138 3.76524 14.1267 4.30322 14.5015 4.51269C15.7663 5.2195 16.8441 6.22297 17.6404 7.42817C17.8337 7.72075 18.1847 7.86701 18.5272 7.7917C20.7038 7.31286 22.9945 6.66722 25.276 5.79735C25.6544 5.65306 25.7615 5.16332 25.4747 4.87749C22.5126 1.92537 17.974 1.43028 14.4812 3.54305Z" fill="#036C6A"/>
<path d="M4.77395 8.26492C4.49163 8.63176 4.75848 9.1639 5.22136 9.16552C8.27684 9.17635 11.4551 8.96681 14.535 8.51771C14.9979 8.45021 15.1805 7.88339 14.8463 7.55594C11.9426 4.71049 7.23878 5.06199 4.77395 8.26492Z" fill="#036C6A"/>
</g>
<defs>
<clipPath id="clip0_424_4547">
<rect width="36" height="36" fill="white"/>
</clipPath>
</defs>
</svg>
