<svg width="30" height="30" viewBox="0 0 30 30" fill="none" xmlns="http://www.w3.org/2000/svg">
<g clip-path="url(#clip0_2007_1370)">
<path d="M22.5312 27.1758C24.091 27.1758 25.3555 25.9113 25.3555 24.3516C25.3555 22.7918 24.091 21.5273 22.5312 21.5273C20.9715 21.5273 19.707 22.7918 19.707 24.3516C19.707 25.9113 20.9715 27.1758 22.5312 27.1758Z" fill="white"/>
<path d="M8.81374 26.0124C9.72621 24.7475 9.44044 22.9823 8.17547 22.0698C6.91049 21.1574 5.14532 21.4431 4.23286 22.7081C3.32039 23.9731 3.60615 25.7382 4.87113 26.6507C6.13611 27.5632 7.90127 27.2774 8.81374 26.0124Z" fill="white"/>
<path d="M17.9492 3.70312C17.9492 3.21773 17.5557 2.82422 17.0703 2.82422H0.878906C0.393516 2.82422 0 3.21773 0 3.70312V16.0039H17.9492V3.70312Z" fill="white"/>
<path d="M0 23.4727C0 23.9581 0.393516 24.3516 0.878906 24.3516H1.94531C1.94531 21.825 4.00078 19.7696 6.52734 19.7696C9.05391 19.7696 11.1094 21.8251 11.1094 24.3516H17.0703C17.5557 24.3516 17.9492 23.9581 17.9492 23.4727V17.7617H0V23.4727Z" fill="white"/>
<path d="M24.3516 7.59045V14.4569L30 17.2811V14.0586C30 10.727 27.5256 8.01784 24.3516 7.59045Z" fill="white"/>
<path d="M22.5938 15V7.53125H20.5859C20.1005 7.53125 19.707 7.92477 19.707 8.41016V20.7474C20.4859 20.1357 21.4663 19.7696 22.5312 19.7696C25.0578 19.7696 27.1133 21.8251 27.1133 24.3516H29.1211C29.6065 24.3516 30 23.9581 30 23.4727V19.2464L23.0796 15.7862C22.7819 15.6372 22.5938 15.3329 22.5938 15Z" fill="white"/>
</g>
<defs>
<clipPath id="clip0_2007_1370">
<rect width="30" height="30" fill="white"/>
</clipPath>
</defs>
</svg>
