<svg width="30" height="30" viewBox="0 0 30 30" fill="none" xmlns="http://www.w3.org/2000/svg">
<g clip-path="url(#clip0_2007_1840)">
<path d="M20.7439 1.85291H3.39258C1.52168 1.85291 0 3.37459 0 5.24548V20.4506C0 21.1707 0.814395 21.5766 1.38926 21.166L6.22148 17.7183C6.62695 17.4295 7.10391 17.2765 7.60195 17.2765H18.2303C20.1012 17.2765 21.6229 15.7549 21.6229 13.884V2.73181C21.6229 2.24666 21.2291 1.85291 20.7439 1.85291ZM16.4748 12.5H6.31992C5.83477 12.5 5.44102 12.1068 5.44102 11.6211C5.44102 11.1359 5.83477 10.7422 6.31992 10.7422H16.4748C16.96 10.7422 17.3537 11.1359 17.3537 11.6211C17.3537 12.1068 16.96 12.5 16.4748 12.5ZM16.4748 8.39841H6.31992C5.83477 8.39841 5.44102 8.00525 5.44102 7.51951C5.44102 7.03435 5.83477 6.6406 6.31992 6.6406H16.4748C16.96 6.6406 17.3537 7.03435 17.3537 7.51951C17.3537 8.00525 16.96 8.39841 16.4748 8.39841Z" fill="white"/>
<path d="M30 12.0628V27.2673C30 27.9826 29.1898 28.3963 28.6108 27.9828L23.7786 24.5357C23.3731 24.2468 22.8961 24.0939 22.3981 24.0939H11.7698C9.89888 24.0939 8.3772 22.5716 8.3772 20.7007V19.0343H18.2303C21.0704 19.0343 23.3807 16.724 23.3807 13.8839V8.66968H26.6075C28.4784 8.66968 30 10.1919 30 12.0628Z" fill="white"/>
</g>
<defs>
<clipPath id="clip0_2007_1840">
<rect width="30" height="30" fill="white"/>
</clipPath>
</defs>
</svg>
