<svg width="30" height="30" viewBox="0 0 30 30" fill="none" xmlns="http://www.w3.org/2000/svg">
<g clip-path="url(#clip0_2007_1267)">
<path d="M0 3.52942H9.70588V6.17648H0V3.52942Z" fill="white"/>
<path d="M1.76465 0H7.94112V1.76471H1.76465V0Z" fill="white"/>
<path d="M22.0588 28.2354H28.2353V30.0001H22.0588V28.2354Z" fill="white"/>
<path d="M10.5881 12.3529H20.294V15H10.5881V12.3529Z" fill="white"/>
<path d="M20.2942 23.8235H30.0001V26.4705H20.2942V23.8235Z" fill="white"/>
<path d="M12.3529 21.6176C12.3529 22.834 11.3634 23.8235 10.147 23.8235C8.93065 23.8235 7.94112 22.834 7.94112 21.6176V7.94116H1.76465V21.6176C2.18618 32.7229 18.1097 32.7195 18.5294 21.6175V16.7647H12.3529V21.6176Z" fill="white"/>
<path d="M18.5295 7.94113C18.5295 6.96807 19.3211 6.17642 20.2942 6.17642C21.2673 6.17642 22.0589 6.96807 22.0589 7.94113V22.0588H28.2354V7.94113C27.8361 -2.5797 12.7506 -2.5764 12.353 7.94124C12.353 7.94113 12.353 10.5882 12.353 10.5882H18.5295V7.94113Z" fill="white"/>
</g>
<defs>
<clipPath id="clip0_2007_1267">
<rect width="30" height="30" fill="white"/>
</clipPath>
</defs>
</svg>
