<svg width="30" height="30" viewBox="0 0 30 30" fill="none" xmlns="http://www.w3.org/2000/svg">
<g clip-path="url(#clip0_2007_1903)">
<path d="M23.1875 4.14787H26.8732L23.1875 0.462402V4.14787Z" fill="white"/>
<path d="M22.2983 5.92622C21.8073 5.92622 21.4093 5.52819 21.4093 5.03701V-0.0585938H6.5633C6.07234 -0.0585938 5.67432 0.339433 5.67432 0.830614V16.6782C6.59992 16.2916 7.61501 16.0776 8.67931 16.0776C9.20505 16.0776 9.71867 16.13 10.2156 16.2294C10.1561 16.1101 10.1217 15.9762 10.1217 15.8338C10.1217 15.3429 10.52 14.9449 11.0109 14.9449H21.7203C22.2113 14.9449 22.6095 15.3429 22.6095 15.8338C22.6095 16.325 22.2113 16.7231 21.7203 16.7231H11.7891C14.5588 17.9281 16.5004 20.6907 16.5004 23.8987C16.5004 25.1441 16.2075 26.3219 15.6875 27.3681H26.5177C27.0089 27.3681 27.4069 26.9699 27.4069 26.4789V5.92622H22.2983ZM18.5192 8.83898C18.5192 9.33016 18.1212 9.72818 17.63 9.72818H11.0109C10.52 9.72818 10.1217 9.33016 10.1217 8.83898C10.1217 8.34802 10.52 7.94977 11.0109 7.94977H17.63C18.1212 7.94977 18.5192 8.34779 18.5192 8.83898ZM21.7203 13.2257H11.0109C10.52 13.2257 10.1217 12.8275 10.1217 12.3365C10.1217 11.8453 10.52 11.4473 11.0109 11.4473H21.7203C22.2113 11.4473 22.6095 11.8453 22.6095 12.3365C22.6095 12.8275 22.2113 13.2257 21.7203 13.2257Z" fill="white"/>
<path d="M14.7224 23.8988C14.7224 20.5667 12.0115 17.8561 8.67944 17.8561C5.3476 17.8561 2.63672 20.5667 2.63672 23.8988C2.63672 27.2306 5.34737 29.9415 8.67944 29.9415C12.0115 29.9415 14.7224 27.2306 14.7224 23.8988ZM8.19741 26.3117C8.03285 26.4458 7.83418 26.5113 7.63642 26.5113C7.3874 26.5113 7.13975 26.4069 6.9642 26.2046L5.13039 24.0897C4.80858 23.7187 4.84864 23.1572 5.21966 22.8354C5.59067 22.5138 6.15212 22.5537 6.47393 22.9247L7.74308 24.3884L10.7652 21.9279C11.1461 21.618 11.7062 21.6752 12.0161 22.0561C12.3262 22.4369 12.2688 22.997 11.8879 23.3071L8.19741 26.3117Z" fill="white"/>
</g>
<defs>
<clipPath id="clip0_2007_1903">
<rect width="30" height="30" fill="white"/>
</clipPath>
</defs>
</svg>
