<svg width="30" height="30" viewBox="0 0 30 30" fill="none" xmlns="http://www.w3.org/2000/svg">
<g clip-path="url(#clip0_2007_308)">
<path d="M15.8203 0.514893V5.8594H21.1648L15.8203 0.514893Z" fill="white"/>
<path d="M7.91016 24.6094C9.36638 24.6094 10.5469 23.4289 10.5469 21.9727C10.5469 20.5164 9.36638 19.3359 7.91016 19.3359C6.45394 19.3359 5.27344 20.5164 5.27344 21.9727C5.27344 23.4289 6.45394 24.6094 7.91016 24.6094Z" fill="white"/>
<path d="M17.1094 30V28.2422C17.1094 27.2713 17.8963 26.4844 18.8672 26.4844H28.2422C29.213 26.4844 30 27.2713 30 28.2422V29.1211C30 29.6065 29.6065 30 29.1211 30H17.1094Z" fill="white"/>
<path d="M15.3516 28.2422C15.3516 26.3037 16.9287 24.7266 18.8672 24.7266H20.0391V22.6355C20.0391 21.5991 19.7348 20.5936 19.1592 19.7274C18.5849 18.8633 18.2812 17.8566 18.2812 16.8164C18.2812 14.5688 19.6949 12.6454 21.6797 11.8877V7.61719H14.9414C14.456 7.61719 14.0625 7.22367 14.0625 6.73828V0H0.878906C0.393516 0 0 0.393516 0 0.878906V29.1211C0 29.6065 0.393516 30 0.878906 30H15.3516V28.2422ZM4.39453 3.51562H11.4258C11.9112 3.51562 12.3047 3.90914 12.3047 4.39453C12.3047 4.87992 11.9112 5.27344 11.4258 5.27344H4.39453C3.90914 5.27344 3.51562 4.87992 3.51562 4.39453C3.51562 3.90914 3.90914 3.51562 4.39453 3.51562ZM4.39453 7.03125H11.4258C11.9112 7.03125 12.3047 7.42477 12.3047 7.91016C12.3047 8.39555 11.9112 8.78906 11.4258 8.78906H4.39453C3.90914 8.78906 3.51562 8.39555 3.51562 7.91016C3.51562 7.42477 3.90914 7.03125 4.39453 7.03125ZM4.39453 10.5469H17.2852C17.7705 10.5469 18.1641 10.9404 18.1641 11.4258C18.1641 11.9112 17.7705 12.3047 17.2852 12.3047H4.39453C3.90914 12.3047 3.51562 11.9112 3.51562 11.4258C3.51562 10.9404 3.90914 10.5469 4.39453 10.5469ZM4.39453 14.0625H15.5273C16.0127 14.0625 16.4062 14.456 16.4062 14.9414C16.4062 15.4268 16.0127 15.8203 15.5273 15.8203H4.39453C3.90914 15.8203 3.51562 15.4268 3.51562 14.9414C3.51562 14.456 3.90914 14.0625 4.39453 14.0625ZM7.91016 26.3672C5.48701 26.3672 3.51562 24.3958 3.51562 21.9727C3.51562 19.5495 5.48701 17.5781 7.91016 17.5781C10.3333 17.5781 12.3047 19.5495 12.3047 21.9727C12.3047 24.3958 10.3333 26.3672 7.91016 26.3672Z" fill="white"/>
<path d="M21.7969 22.6354V24.7266H25.3125V22.6354C25.3125 21.2541 25.7216 19.9049 26.4862 18.7545C26.8552 18.1993 27.0703 17.5333 27.0703 16.8164C27.0703 14.8748 25.4963 13.3008 23.5547 13.3008C21.6131 13.3008 20.0391 14.8748 20.0391 16.8164C20.0391 17.5333 20.2542 18.1993 20.6232 18.7545C21.3878 19.9049 21.7969 21.2541 21.7969 22.6354Z" fill="white"/>
</g>
<defs>
<clipPath id="clip0_2007_308">
<rect width="30" height="30" fill="white"/>
</clipPath>
</defs>
</svg>
