<svg width="30" height="30" viewBox="0 0 30 30" fill="none" xmlns="http://www.w3.org/2000/svg">
<g clip-path="url(#clip0_2007_939)">
<path d="M29.1211 10.6055H27.4271C27.2717 10.1629 27.0947 9.73242 26.8975 9.3174L28.0925 8.12232C28.2574 7.9575 28.35 7.73397 28.35 7.50082C28.35 7.26768 28.2574 7.0442 28.0925 6.87937L23.1206 1.90752C22.7774 1.56428 22.2209 1.56428 21.8777 1.90752L20.6825 3.10266C20.2674 2.90537 19.837 2.72836 19.3945 2.57291V0.878906C19.3945 0.393516 19.001 0 18.5156 0H11.4844C10.999 0 10.6055 0.393516 10.6055 0.878906V2.57291C10.1629 2.72836 9.73254 2.90537 9.31746 3.10266L8.12226 1.90752C7.77908 1.56428 7.22256 1.56428 6.87932 1.90752L1.9074 6.87937C1.74258 7.0442 1.64994 7.26774 1.64994 7.50082C1.64994 7.73391 1.74258 7.95744 1.9074 8.12232L3.10254 9.3174C2.90531 9.73242 2.7283 10.1629 2.57285 10.6055H0.878906C0.393516 10.6055 0 10.999 0 11.4844V18.5156C0 19.001 0.393516 19.3945 0.878906 19.3945H2.57291C2.72836 19.8371 2.90537 20.2675 3.10266 20.6825L1.90746 21.8777C1.74264 22.0426 1.65 22.2661 1.65 22.4992C1.65 22.7324 1.74264 22.9559 1.90746 23.1207L6.87937 28.0925C7.0442 28.2574 7.26774 28.3499 7.50082 28.3499C7.73397 28.3499 7.95744 28.2573 8.12232 28.0925L9.3174 26.8974C9.73248 27.0947 10.163 27.2717 10.6055 27.4271V29.1211C10.6055 29.6065 10.999 30 11.4844 30H18.5156C19.001 30 19.3945 29.6065 19.3945 29.1211V27.4271C19.8371 27.2717 20.2675 27.0947 20.6826 26.8973L21.8777 28.0924C22.0424 28.2572 22.266 28.3499 22.4991 28.3499C22.7322 28.3499 22.9558 28.2573 23.1206 28.0925L28.0925 23.1206C28.2573 22.9558 28.3499 22.7323 28.3499 22.4992C28.3499 22.2661 28.2574 22.0425 28.0925 21.8777L26.8973 20.6826C27.0946 20.2675 27.2716 19.8371 27.4271 19.3945H29.1211C29.6065 19.3945 30 19.001 30 18.5156V11.4844C30 10.999 29.6065 10.6055 29.1211 10.6055ZM15 22.9102C10.6383 22.9102 7.08984 19.3617 7.08984 15C7.08984 10.6383 10.6383 7.08984 15 7.08984C19.3617 7.08984 22.9102 10.6383 22.9102 15C22.9102 19.3617 19.3617 22.9102 15 22.9102Z" fill="white"/>
<path d="M18.4857 14.9075C17.6269 15.8628 16.3826 16.4649 15 16.4649C13.6174 16.4649 12.373 15.8628 11.5143 14.9075C10.6064 15.6043 10.0195 16.6995 10.0195 17.9297V19.1016C10.0195 19.587 10.413 19.9805 10.8984 19.9805H19.1016C19.587 19.9805 19.9805 19.587 19.9805 19.1016V17.9297C19.9805 16.6995 19.3936 15.6043 18.4857 14.9075Z" fill="white"/>
<path d="M15 14.707C16.618 14.707 17.9297 13.3954 17.9297 11.7773C17.9297 10.1593 16.618 8.84766 15 8.84766C13.382 8.84766 12.0703 10.1593 12.0703 11.7773C12.0703 13.3954 13.382 14.707 15 14.707Z" fill="white"/>
</g>
<defs>
<clipPath id="clip0_2007_939">
<rect width="30" height="30" fill="white"/>
</clipPath>
</defs>
</svg>
