<svg width="333" height="46" viewBox="0 0 333 46" fill="none" xmlns="http://www.w3.org/2000/svg">
<g clip-path="url(#clip0_2001_4063)">
<path d="M43.5954 10.917C41.625 10.917 39.9009 12.4052 39.6546 14.6374V15.3814V16.6215V17.8617V37.9514H21.182V17.8617V14.6374C21.182 14.1413 20.9357 13.6453 20.9357 13.6453C20.1967 11.9091 18.9652 10.917 17.2411 10.917C15.2707 10.917 13.5466 12.4052 13.3003 14.6374V15.3814V17.8617V21.83V40.4317C13.3003 41.1757 13.5466 41.9198 13.7929 42.4158C14.0392 43.1599 14.5318 43.6559 15.0244 44.152C15.517 44.648 16.2559 45.1441 16.7485 45.3921C17.4874 45.6401 18.2263 45.8881 18.7189 45.8881H42.1176C42.8565 45.8881 43.5954 45.6401 44.088 45.3921C44.8269 45.1441 45.3195 44.648 45.8121 44.152C46.3047 43.6559 46.7973 42.9119 47.0436 42.4158C47.2899 41.6718 47.5362 40.9277 47.5362 40.4317V17.8617V14.6374C47.2899 12.4052 45.5658 10.917 43.5954 10.917ZM3.94083 37.9514C6.15755 37.9514 7.88166 39.6876 7.88166 41.9198C7.88166 44.152 6.15755 45.8881 3.94083 45.8881C1.72411 45.8881 0 44.152 0 41.9198C0 39.6876 1.72411 37.9514 3.94083 37.9514ZM43.1028 0.500122C45.3195 0.500122 47.0436 2.23628 47.0436 4.46847C47.0436 6.70067 45.3195 8.43682 43.1028 8.43682C40.8861 8.43682 39.162 6.70067 39.162 4.46847C39.162 2.23628 40.8861 0.500122 43.1028 0.500122ZM30.2951 35.7192C28.3247 35.7192 26.6006 34.2311 26.3543 31.9989V31.2548V30.0147V28.5266V8.43682H7.88166V28.5266V31.7509C7.88166 32.2469 7.63536 32.743 7.63536 32.743C7.14275 34.2311 5.66494 35.4712 3.94083 35.4712C1.97041 35.4712 0.246302 33.9831 0 31.7509V31.0068V28.2786V24.5583V5.95661C0 5.21254 0.246302 4.46847 0.492604 3.97243C0.738905 3.22836 1.23151 2.73232 1.72411 2.23628C2.21672 1.74023 2.95562 1.24419 3.44823 0.996166C3.94083 0.748144 4.67973 0.500122 5.41864 0.500122H28.8173C29.5562 0.500122 30.2951 0.748144 30.7877 0.996166C31.5266 1.24419 32.0192 1.74023 32.5118 2.23628C33.0044 2.73232 33.497 3.47639 33.7433 3.97243C33.9896 4.7165 34.2359 5.46056 34.2359 5.95661V28.5266V31.7509C34.2359 33.9831 32.5118 35.7192 30.2951 35.7192Z" fill="#00478A"/>
<path d="M241.129 16.6215C240.637 16.1255 240.144 16.1255 239.652 16.1255H226.105C225.612 16.1255 225.12 16.3735 224.627 16.6215C224.381 17.1176 224.135 17.6136 224.135 18.1097V28.2786C224.135 28.7746 224.381 29.2707 224.627 29.7667C225.12 30.0147 225.612 30.2627 226.105 30.2627H239.652C240.144 30.2627 240.637 30.0147 241.129 29.7667C241.376 29.5187 241.622 28.7746 241.622 28.2786V18.1097C241.868 17.6136 241.622 17.1176 241.129 16.6215ZM245.317 33.9831C243.839 35.4712 241.868 36.2153 239.898 36.2153H226.351C224.135 36.2153 222.164 35.2232 220.933 33.9831C219.455 32.4949 218.716 30.5108 218.716 28.5266V18.1097C218.716 15.8775 219.701 13.8933 220.933 12.6532C222.41 11.1651 224.381 10.421 226.351 10.421H239.898C242.115 10.421 244.085 11.4131 245.317 12.6532C246.794 14.1413 247.533 16.1255 247.533 18.1097V28.2786C247.533 30.5108 246.794 32.4949 245.317 33.9831Z" fill="#00478A"/>
<path d="M144.825 16.6215C144.333 16.1255 143.84 16.1255 143.348 16.1255H129.801C129.308 16.1255 128.816 16.3735 128.323 16.6215C128.077 16.8696 127.831 17.6136 127.831 18.1097V28.2786C127.831 28.7746 128.077 29.2707 128.323 29.7667C128.816 30.0147 129.308 30.2627 129.801 30.2627H143.348C143.84 30.2627 144.333 30.0147 144.825 29.7667C145.072 29.5187 145.318 28.7746 145.318 28.2786V18.1097C145.564 17.6136 145.318 17.1176 144.825 16.6215ZM149.013 33.9831C147.535 35.4712 145.564 36.2153 143.594 36.2153H130.047C127.831 36.2153 125.86 35.2232 124.629 33.9831C123.151 32.4949 122.412 30.5108 122.412 28.5266V18.1097C122.412 15.8775 123.397 13.8933 124.629 12.6532C126.107 11.1651 128.077 10.421 130.047 10.421H143.594C145.811 10.421 147.781 11.4131 149.013 12.6532C150.49 14.1413 151.229 16.1255 151.229 18.1097V28.2786C151.229 30.5108 150.244 32.4949 149.013 33.9831Z" fill="#00478A"/>
<path d="M100.491 33.239C100.491 34.7271 99.2596 35.9673 97.5354 35.9673C96.0576 35.9673 94.5798 34.7271 94.5798 32.991C94.5798 32.991 94.5798 32.991 94.5798 32.743V30.7588V12.6532V10.173H97.0429H112.806C114.53 10.173 116.008 10.917 116.993 11.9091C117.979 12.9012 118.717 14.3893 118.717 16.1255V21.83C118.717 23.5662 117.979 25.0543 116.993 26.0464C116.008 27.0385 114.53 27.7825 112.806 27.7825H100.491V30.5108V33.239ZM112.806 16.1255H100.491V22.326H112.806C112.806 22.326 112.806 22.326 113.052 22.326L112.806 16.1255Z" fill="#00478A"/>
<path d="M297.533 16.6215C297.04 16.1255 296.547 16.1255 296.055 16.1255H282.508C282.016 16.1255 281.523 16.3735 281.03 16.6215C280.538 16.8696 280.538 17.6136 280.538 18.1097V28.2786C280.538 28.7746 280.784 29.2707 281.03 29.7667C281.523 30.0147 282.016 30.2627 282.508 30.2627H296.055C296.547 30.2627 297.04 30.0147 297.533 29.7667C297.779 29.5187 298.025 28.7746 298.025 28.2786V18.1097C298.025 17.6136 297.779 17.1176 297.533 16.6215ZM301.473 33.9831C299.996 35.4712 298.025 36.2153 296.055 36.2153H282.508C280.291 36.2153 278.321 35.2232 277.09 33.9831C275.612 32.4949 274.873 30.5108 274.873 28.5266V18.1097C274.873 15.8775 275.858 13.8933 277.09 12.6532C278.567 11.1651 280.538 10.421 282.508 10.421H296.055C298.271 10.421 300.242 11.4131 301.473 12.6532C302.951 14.1413 303.69 16.1255 303.69 18.1097V28.2786C303.69 30.5108 302.951 32.4949 301.473 33.9831Z" fill="#00478A"/>
<path d="M215.268 32.991C215.268 34.7271 214.036 35.9673 212.312 35.9673C210.834 35.9673 209.357 34.7271 209.357 33.239V30.7588V16.1255H195.81V31.0068V33.239V33.487C195.81 34.9752 194.578 36.2153 192.854 36.2153C191.377 36.2153 190.145 34.9752 189.899 33.487V33.239V31.0068V14.3893C189.899 13.8933 189.899 13.3973 190.145 12.9012C190.391 12.4052 190.638 11.9091 191.13 11.6611C191.623 11.1651 191.869 10.917 192.362 10.669C192.854 10.421 193.347 10.421 193.84 10.421H211.081C211.573 10.421 212.066 10.421 212.558 10.669C213.051 10.917 213.544 11.1651 213.79 11.4131C214.283 11.9091 214.529 12.1571 214.775 12.6532C215.021 13.1492 215.021 13.6453 215.021 14.1413V30.7588V32.991H215.268Z" fill="#00478A"/>
<path d="M91.6242 33.239C91.6242 34.7271 90.3927 35.9673 88.6686 35.9673C87.1908 35.9673 85.713 34.7271 85.713 32.991V32.743V30.7588V15.8775H72.1664V30.7588V33.239C72.1664 34.7271 70.9349 35.9673 69.2107 35.9673C67.7329 35.9673 66.2551 34.7271 66.2551 32.991V32.743V30.7588V14.3893C66.2551 13.8933 66.2551 13.3973 66.5014 12.9012C66.7477 12.4052 66.994 11.9091 67.2403 11.6611C67.7329 11.1651 67.9792 10.917 68.4718 10.669C68.9644 10.421 69.457 10.421 69.9497 10.421H87.1908C87.6834 10.421 88.176 10.421 88.6686 10.669C89.1612 10.917 89.6538 11.1651 89.9001 11.6611C90.3927 12.1571 90.639 12.4052 90.8853 12.9012C91.1316 13.3973 91.1316 13.8933 91.1316 14.3893V31.0068L91.6242 33.239Z" fill="#00478A"/>
<path d="M270.686 10.173C272.163 10.173 273.395 11.6611 273.395 13.1492C273.395 14.6374 272.163 15.8775 270.686 16.1255H270.439H268.469H264.036V30.7588V33.239C264.036 34.7271 262.804 35.9673 261.08 35.9673C259.602 35.9673 258.371 34.7271 258.124 33.239V30.7588V16.1255H251.72C250.243 16.1255 249.011 14.8854 249.011 13.1492C249.011 11.6611 250.243 10.173 251.967 10.173H268.715H270.686Z" fill="#00478A"/>
<path d="M186.943 33.239C186.943 34.7271 185.465 35.9673 183.987 35.9673C182.51 35.9673 181.278 34.7271 181.032 33.239V32.991V30.7588V19.3498L173.396 31.0068C172.904 31.9989 171.919 32.743 170.687 32.743C169.456 32.743 168.47 31.9989 167.978 31.0068L160.096 19.3498V24.3102V26.7904V33.239C159.85 34.7271 158.618 35.9673 157.141 35.9673C155.663 35.9673 154.431 34.7271 154.185 33.239V32.991V26.7904V24.3102V14.6374C154.185 14.1413 154.185 13.6453 154.431 13.1492C154.431 12.6532 154.678 12.4052 154.924 11.9091C155.17 11.4131 155.416 11.1651 155.909 10.917C156.155 10.669 156.648 10.421 157.141 10.421C157.633 10.421 158.372 10.173 158.865 10.173C159.357 10.173 159.85 10.173 160.342 10.421C160.835 10.669 161.081 10.917 161.574 11.1651C162.067 11.4131 162.313 11.9091 162.559 12.1571L170.687 24.3102L178.815 12.1571C179.061 11.6611 179.308 11.4131 179.8 11.1651C180.047 10.917 180.539 10.669 181.032 10.421C181.524 10.421 182.017 10.421 182.51 10.173C183.002 10.173 183.495 10.173 183.987 10.421C184.48 10.669 184.726 10.669 185.219 10.917C185.465 11.1651 185.958 11.4131 186.204 11.9091C186.45 12.4052 186.697 12.6532 186.943 13.1492C187.189 13.6453 187.189 14.1413 187.189 14.6374V30.7588L186.943 33.239Z" fill="#00478A"/>
<path d="M321.424 26.0464C321.67 26.2944 321.916 26.5424 322.163 27.0385L327.089 34.2311C327.089 34.4791 327.335 34.7272 327.581 34.7272V34.9752C328.074 35.4712 328.813 35.9673 329.552 35.9673C331.03 35.9673 332.507 34.7272 332.507 32.991C332.507 32.495 332.261 31.7509 332.015 31.2548L326.842 23.8142C326.596 23.5662 326.596 23.3181 326.35 23.0701C326.596 22.8221 326.596 22.5741 326.842 22.3261L332.015 14.8854C332.261 14.6374 332.261 14.6374 332.261 14.3894C332.507 13.8933 332.507 13.3973 332.507 12.9012C332.507 11.4131 331.276 9.92496 329.552 9.92496C328.567 9.92496 327.828 10.421 327.089 11.1651L321.67 18.8537C321.424 19.3498 321.177 19.5978 320.931 19.8458H311.818V15.1334V12.6532C311.572 11.1651 310.34 10.173 308.862 10.173C307.385 10.173 306.153 11.1651 305.907 12.6532V12.9012V13.1492V14.8854V30.5108V32.743V32.991C305.907 34.4791 307.138 35.9673 308.862 35.9673C310.34 35.9673 311.818 34.7272 311.818 32.991V30.5108V26.0464H321.424Z" fill="#00478A"/>
</g>
<defs>
<clipPath id="clip0_2001_4063">
<rect width="333" height="45.388" fill="white" transform="translate(0 0.500122)"/>
</clipPath>
</defs>
</svg>
