<svg width="57" height="57" viewBox="0 0 57 57" fill="none" xmlns="http://www.w3.org/2000/svg">
<g clip-path="url(#clip0_40_382)">
<path d="M54.9475 48.0793L48.4107 34.0616C44.8014 39.3171 39.1658 43.0594 32.6423 44.1941L38.1143 55.9282C38.8139 57.4297 40.979 57.3295 41.5425 55.7789L44.3471 48.0746L44.9252 47.8051L52.6296 50.6098C54.1756 51.1771 55.6462 49.5749 54.9475 48.0793Z" fill="white"/>
<path d="M28.5001 0C17.2352 0 8.06958 9.16509 8.06958 20.4305C8.06958 31.6959 17.2353 40.861 28.5001 40.861C39.7649 40.861 48.9306 31.6959 48.9306 20.4305C48.9306 9.16509 39.765 0 28.5001 0ZM38.441 18.9293L34.8183 22.4609L35.6744 27.4488C35.9361 28.9717 34.3315 30.1158 32.979 29.4065L28.5002 27.0522L24.0213 29.4064C22.661 30.1207 21.0657 28.9631 21.326 27.4487L22.1821 22.4608L18.5594 18.9292C17.4583 17.8558 18.0694 15.982 19.5886 15.7613L24.5958 15.034L26.8353 10.497C27.5129 9.11922 29.487 9.118 30.1654 10.497L32.4049 15.034L37.4121 15.7613C38.9311 15.9819 39.542 17.8558 38.441 18.9293Z" fill="white"/>
<path d="M8.58966 34.0616L2.05291 48.0793C1.35099 49.5819 2.83477 51.1753 4.37088 50.6094L12.0752 47.8047L12.6532 48.0743L15.4579 55.7787C16.0203 57.3261 18.185 57.4327 18.8861 55.9281L24.3581 44.194C17.8346 43.0594 12.1991 39.3172 8.58966 34.0616Z" fill="white"/>
</g>
<defs>
<clipPath id="clip0_40_382">
<rect width="57" height="57" fill="white"/>
</clipPath>
</defs>
</svg>
