<svg width="90" height="90" viewBox="0 0 90 90" fill="none" xmlns="http://www.w3.org/2000/svg">
<path d="M45 0C26.3848 0 11.25 15.1348 11.25 33.75C11.25 58.6406 42.3809 88.2422 43.7168 89.4902C44.0859 89.8242 44.543 90 45 90C45.457 90 45.9316 89.8242 46.2832 89.4902C47.6191 88.2422 78.75 58.6406 78.75 33.75C78.75 15.1348 63.6152 0 45 0ZM45 52.5059C34.6641 52.5059 26.2441 44.0859 26.2441 33.75C26.2441 23.4141 34.6641 14.9941 45 14.9941C55.3359 14.9941 63.7559 23.4141 63.7559 33.75C63.7559 44.0859 55.3359 52.5059 45 52.5059Z" fill="#00478A"/>
<circle cx="45" cy="32.7966" r="22.1186" fill="#00478A"/>
<g clip-path="url(#clip0_2005_4123)">
<path d="M57.4138 25.9962C56.0345 25.9962 55 27.0341 55 28.2448V28.7638V29.4556V30.4934V43.1202H43.2759V30.4934V28.4178C43.2759 28.0719 43.1034 27.7259 43.1034 27.7259C42.7586 26.6881 41.8966 25.9962 40.6897 25.9962C39.3103 25.9962 38.2759 27.0341 38.2759 28.2448V28.7638V30.4934V32.915V44.6769C38.2759 45.1958 38.2759 45.5418 38.4483 46.0607C38.6207 46.4066 38.7931 46.9255 39.1379 47.2715C39.4828 47.6174 39.8276 47.7904 40.3448 47.9634C40.6897 48.1363 41.2069 48.1363 41.7241 48.1363H56.5517C57.069 48.1363 57.4138 48.1363 57.931 47.9634C58.2759 47.7904 58.7931 47.6174 59.1379 47.2715C59.4828 46.9255 59.6552 46.5796 59.8276 46.0607C60 45.7148 60 45.1958 60 44.6769V30.4934V28.4178C59.8276 27.0341 58.7931 25.9962 57.4138 25.9962ZM32.5862 43.1202C33.9655 43.1202 35 44.158 35 45.5418C35 46.9255 33.9655 47.9634 32.5862 47.9634C31.2069 47.9634 30.1724 46.9255 30.1724 45.5418C30 44.331 31.2069 43.1202 32.5862 43.1202ZM57.2414 19.5964C58.6207 19.5964 59.6552 20.6342 59.6552 22.0179C59.6552 23.4017 58.6207 24.4395 57.2414 24.4395C55.8621 24.4395 54.8276 23.4017 54.8276 22.0179C54.6552 20.6342 55.8621 19.5964 57.2414 19.5964ZM49.1379 41.7365C47.7586 41.7365 46.7241 40.6986 46.7241 39.4879V38.9689V38.2771V37.2393V24.6125H35V37.2393V39.3149C35 39.6608 34.8276 40.0068 34.8276 40.0068C34.4828 41.0446 33.6207 41.7365 32.4138 41.7365C31.0345 41.7365 30 40.6986 30 39.4879V38.9689V37.2393V34.8177V23.0558C30 22.5369 30 22.1909 30.1724 21.672C30.3448 21.3261 30.6897 20.9801 31.0345 20.6342C31.3793 20.2883 31.7241 19.9423 32.069 19.7693C32.5862 19.5964 32.931 19.5964 33.4483 19.5964H48.2759C48.7931 19.5964 49.1379 19.5964 49.6552 19.7693C50 19.9423 50.5172 20.1153 50.8621 20.4612C51.2069 20.8072 51.3793 21.1531 51.5517 21.672C51.7241 22.0179 51.7241 22.5369 51.7241 23.0558V37.2393V39.3149C51.5517 40.6986 50.5172 41.7365 49.1379 41.7365Z" fill="white"/>
</g>
<defs>
<clipPath id="clip0_2005_4123">
<rect width="30" height="28.54" fill="white" transform="translate(30 19.5964)"/>
</clipPath>
</defs>
</svg>
