<svg width="31" height="24" viewBox="0 0 31 24" fill="none" xmlns="http://www.w3.org/2000/svg">
<path d="M20.88 23.192L18.576 20.024C19.472 19.384 20.304 18.616 21.072 17.72C21.84 16.824 22.512 15.864 23.088 14.84C23.728 13.816 24.176 12.792 24.432 11.768C22.768 11.64 21.424 11.096 20.4 10.136C19.376 9.176 18.864 7.896 18.864 6.296C18.864 4.504 19.44 3.128 20.592 2.168C21.744 1.144 23.184 0.663996 24.912 0.727995C27.024 0.791998 28.496 1.624 29.328 3.224C30.224 4.76 30.672 6.456 30.672 8.31199C30.672 10.424 30.224 12.504 29.328 14.552C28.432 16.6 27.216 18.392 25.68 19.928C24.208 21.464 22.608 22.552 20.88 23.192ZM2.736 23.192L0.432 20.024C1.328 19.384 2.16 18.616 2.928 17.72C3.696 16.824 4.368 15.864 4.944 14.84C5.584 13.816 6.032 12.792 6.288 11.768C4.624 11.64 3.28 11.096 2.256 10.136C1.232 9.176 0.72 7.896 0.72 6.296C0.72 4.504 1.296 3.128 2.448 2.168C3.6 1.144 5.04 0.663996 6.768 0.727995C8.88 0.791998 10.352 1.624 11.184 3.224C12.08 4.76 12.528 6.456 12.528 8.31199C12.528 10.424 12.048 12.504 11.088 14.552C10.192 16.6 9.008 18.392 7.536 19.928C6.064 21.464 4.464 22.552 2.736 23.192Z" fill="#036C6A"/>
</svg>
