<svg width="31" height="24" viewBox="0 0 31 24" fill="none" xmlns="http://www.w3.org/2000/svg">
<path d="M24.816 22.944C22.64 22.816 21.072 22.016 20.112 20.544C19.152 19.072 18.672 17.408 18.672 15.552C18.672 13.312 19.12 11.168 20.016 9.12C20.976 7.008 22.192 5.184 23.664 3.648C25.136 2.112 26.736 1.05599 28.464 0.479994L30.768 3.648C29.936 4.224 29.104 4.992 28.272 5.952C27.504 6.848 26.8 7.808 26.16 8.832C25.584 9.856 25.168 10.88 24.912 11.904C26.064 11.968 27.056 12.256 27.888 12.768C28.72 13.216 29.36 13.824 29.808 14.592C30.256 15.36 30.48 16.288 30.48 17.376C30.48 19.168 29.936 20.576 28.848 21.6C27.76 22.56 26.416 23.008 24.816 22.944ZM6.768 22.944C4.528 22.88 2.928 22.112 1.968 20.64C1.008 19.104 0.528 17.408 0.528 15.552C0.528 13.312 0.976 11.168 1.872 9.12C2.832 7.008 4.048 5.184 5.52 3.648C6.992 2.112 8.592 1.05599 10.32 0.479994L12.624 3.648C11.792 4.224 10.96 4.992 10.128 5.952C9.36 6.848 8.656 7.808 8.016 8.832C7.44 9.856 7.024 10.88 6.768 11.904C7.92 11.968 8.912 12.256 9.744 12.768C10.576 13.216 11.216 13.824 11.664 14.592C12.112 15.36 12.336 16.288 12.336 17.376C12.336 19.168 11.76 20.544 10.608 21.504C9.52 22.464 8.24 22.944 6.768 22.944Z" fill="#036C6A"/>
</svg>
