<svg width="40" height="41" viewBox="0 0 40 41" fill="none" xmlns="http://www.w3.org/2000/svg">
<ellipse cx="20" cy="20.6984" rx="20" ry="20.1725" fill="#4787DC"/>
<path d="M23.7422 27.5071C23.625 27.5071 23.5087 27.4721 23.4088 27.4039L19.6372 24.8234L17.6144 26.2916C17.4557 26.4066 17.2512 26.4356 17.067 26.3692C16.883 26.3026 16.7433 26.1489 16.6934 25.9583L15.6777 22.0758L12.0484 20.6761C11.82 20.588 11.6684 20.3675 11.6668 20.1208C11.6651 19.874 11.8136 19.6515 12.041 19.5602L25.8408 14.0218C25.9034 13.995 25.9697 13.9795 26.0365 13.9754C26.0604 13.9739 26.0844 13.9739 26.1082 13.9753C26.2466 13.9836 26.3825 14.0404 26.4886 14.1454C26.4996 14.1562 26.5101 14.1673 26.5199 14.1789C26.6078 14.2801 26.6561 14.4036 26.6652 14.5294C26.6674 14.561 26.6673 14.593 26.6645 14.625C26.6626 14.6479 26.6594 14.6706 26.6548 14.6932L24.3254 27.0203C24.288 27.2184 24.1544 27.3841 23.9697 27.4614C23.8965 27.492 23.8192 27.5071 23.7422 27.5071ZM19.9684 23.6027L23.328 25.9012L25.1405 16.3093L18.5944 22.6626L19.9526 23.5919C19.958 23.5953 19.9632 23.599 19.9684 23.6027ZM17.1717 23.0916L17.6215 24.8107L18.5906 24.1073L17.3216 23.2391C17.2626 23.1988 17.2121 23.1487 17.1717 23.0916ZM13.8942 20.1055L16.3862 21.0665C16.5648 21.1353 16.6995 21.2867 16.7483 21.4731L17.0643 22.6811C17.0788 22.5418 17.1414 22.4107 17.2431 22.3119L23.4806 16.2582L13.8942 20.1055Z" fill="white"/>
</svg>
