<svg width="41" height="41" viewBox="0 0 41 41" fill="none" xmlns="http://www.w3.org/2000/svg">
<ellipse cx="20.3376" cy="20.6984" rx="20" ry="20.1725" fill="#5FBC74"/>
<path d="M25.6211 15.3308C24.2106 13.9149 22.3343 13.1346 20.3373 13.1338C18.3448 13.1338 16.4655 13.9134 15.0457 15.329C13.6235 16.747 12.8395 18.6315 12.8376 20.6284V20.6321C12.8379 21.8407 13.153 23.06 13.7512 24.1729L12.8582 28.2631L16.964 27.322C18.0039 27.8501 19.1642 28.1285 20.3344 28.129H20.3374C22.3296 28.129 24.2089 27.3493 25.6289 25.9335C27.0524 24.5144 27.8367 22.6323 27.8376 20.6341C27.8382 18.65 27.0511 16.7666 25.6211 15.3308ZM20.3373 26.9481H20.3347C19.2839 26.9477 18.2427 26.6819 17.3239 26.1792L17.1298 26.073L14.3995 26.6987L14.9926 23.9829L14.8783 23.7843C14.3099 22.7966 14.0095 21.7062 14.0095 20.6308C14.0117 17.1498 16.85 14.3146 20.3371 14.3146C22.0217 14.3153 23.6045 14.9733 24.794 16.1673C26.0015 17.3798 26.6662 18.966 26.6657 20.6338C26.6643 24.1155 23.8254 26.9481 20.3373 26.9481Z" fill="white"/>
<path d="M18.2966 17.3257H17.9678C17.8534 17.3257 17.6676 17.3689 17.5104 17.5412C17.3531 17.7137 16.9099 18.1305 16.9099 18.9782C16.9099 19.8259 17.5247 20.645 17.6104 20.7601C17.6962 20.875 18.7972 22.6702 20.5409 23.3608C21.99 23.9347 22.285 23.8205 22.5995 23.7918C22.914 23.7631 23.6145 23.3751 23.7575 22.9728C23.9004 22.5705 23.9004 22.2257 23.8576 22.1536C23.8146 22.0818 23.7002 22.0388 23.5287 21.9527C23.3571 21.8664 22.5163 21.4426 22.359 21.385C22.2017 21.3276 22.0874 21.2989 21.973 21.4714C21.8585 21.6437 21.5216 22.0421 21.4215 22.1571C21.3215 22.2722 21.2214 22.2866 21.0498 22.2004C20.8782 22.1139 20.3313 21.9288 19.676 21.3419C19.1659 20.8852 18.8119 20.3027 18.7118 20.1303C18.6118 19.958 18.7012 19.8647 18.7872 19.7787C18.8643 19.7016 18.9684 19.5961 19.0542 19.4956C19.1399 19.3949 19.1643 19.3231 19.2216 19.2081C19.2787 19.0932 19.2501 18.9925 19.2073 18.9064C19.1643 18.8202 18.8351 17.9682 18.6825 17.6275C18.554 17.3405 18.4188 17.3308 18.2966 17.3257Z" fill="white"/>
</svg>
