<svg width="41" height="41" viewBox="0 0 41 41" fill="none" xmlns="http://www.w3.org/2000/svg">
<ellipse cx="20.6748" cy="20.6984" rx="20" ry="20.1725" fill="#036C6A"/>
<path d="M25.8415 21.3988C25.6887 21.3988 25.529 21.3498 25.3762 21.3148C25.0668 21.246 24.7628 21.1547 24.4665 21.0416C24.1443 20.9234 23.7902 20.9295 23.4723 21.0588C23.1543 21.1881 22.895 21.4315 22.7443 21.742L22.5915 22.0572C21.9151 21.6777 21.2936 21.2064 20.7443 20.6564C20.199 20.1023 19.7317 19.4754 19.3554 18.7932L19.6471 18.5971C19.9549 18.445 20.1962 18.1835 20.3244 17.8628C20.4526 17.5421 20.4587 17.185 20.3415 16.86C20.2312 16.5605 20.1408 16.254 20.0707 15.9425C20.0359 15.7884 20.0082 15.6273 19.9873 15.4662C19.903 14.9728 19.6468 14.526 19.2648 14.2063C18.8829 13.8865 18.4003 13.7148 17.904 13.7221H15.8207C15.5214 13.7193 15.225 13.7815 14.9517 13.9046C14.6784 14.0276 14.4346 14.2087 14.2369 14.4353C14.0392 14.662 13.8923 14.9289 13.8061 15.218C13.7199 15.5071 13.6964 15.8115 13.7373 16.1106C14.1073 19.0449 15.436 21.7714 17.5135 23.8592C19.591 25.947 22.2989 27.2772 25.2096 27.6397H25.4734C25.9855 27.6404 26.48 27.4509 26.8623 27.1073C27.082 26.9092 27.2575 26.6662 27.3772 26.3945C27.4969 26.1229 27.5581 25.8287 27.5568 25.5314V23.4301C27.5483 22.9435 27.3726 22.4751 27.0598 22.1046C26.747 21.7342 26.3164 21.4847 25.8415 21.3988ZM26.1887 25.6014C26.1886 25.7009 26.1675 25.7992 26.1268 25.8897C26.0861 25.9803 26.0267 26.0611 25.9526 26.1267C25.8752 26.1947 25.7845 26.2454 25.6864 26.2756C25.5883 26.3058 25.485 26.3147 25.3832 26.3019C22.7824 25.9655 20.3667 24.7654 18.517 22.8909C16.6673 21.0165 15.489 18.5742 15.1679 15.9495C15.1568 15.8469 15.1665 15.7431 15.1964 15.6443C15.2262 15.5456 15.2756 15.454 15.3415 15.3751C15.4066 15.3004 15.4867 15.2405 15.5765 15.1994C15.6663 15.1584 15.7637 15.1371 15.8623 15.137H17.9457C18.1072 15.1333 18.2648 15.1866 18.3916 15.2876C18.5184 15.3886 18.6062 15.531 18.6401 15.6903C18.6679 15.8818 18.7026 16.0709 18.7443 16.2577C18.8245 16.6269 18.9313 16.9897 19.0637 17.3433L18.0915 17.7986C18.0084 17.8371 17.9336 17.8917 17.8715 17.9594C17.8093 18.0271 17.7611 18.1065 17.7295 18.1931C17.6978 18.2796 17.6835 18.3716 17.6872 18.4638C17.691 18.556 17.7127 18.6465 17.7512 18.7302C18.7507 20.8894 20.4715 22.6251 22.6123 23.6332C22.7814 23.7033 22.971 23.7033 23.1401 23.6332C23.2267 23.602 23.3063 23.5537 23.3743 23.4911C23.4422 23.4286 23.4972 23.3531 23.5359 23.269L23.9665 22.2884C24.3255 22.4179 24.6919 22.5255 25.0637 22.6106C25.2489 22.6526 25.4364 22.6876 25.6262 22.7156C25.7842 22.7498 25.9253 22.8384 26.0255 22.9663C26.1256 23.0941 26.1784 23.2532 26.1748 23.4161L26.1887 25.6014Z" fill="white"/>
</svg>
